<?xml version="1.0" encoding="UTF-8" standalone="no"?>
<!DOCTYPE svg PUBLIC "-//W3C//DTD SVG 1.1//EN" "http://www.w3.org/Graphics/SVG/1.1/DTD/svg11.dtd">
<svg width="100%" height="100%" viewBox="0 0 1024 1024" version="1.1" xmlns="http://www.w3.org/2000/svg" xmlns:xlink="http://www.w3.org/1999/xlink" xml:space="preserve" xmlns:serif="http://www.serif.com/" style="fill-rule:evenodd;clip-rule:evenodd;stroke-linecap:round;stroke-linejoin:round;stroke-miterlimit:12;">
    <g transform="matrix(1,0,0,1,-1115,-1457)">
        <g id="Logo" transform="matrix(0.64,0,0,0.64,59.2885,1457.12)">
            <rect x="1650" y="0" width="1600" height="1600" style="fill:none;"/>
            <g transform="matrix(7.31429,0,0,7.31429,343.826,-923.709)">
                <g transform="matrix(9.7061,0,0,9.7061,171.48,119.19)">
                    <path d="M21,3.044C21,3.02 20.98,3 20.956,3L3.044,3C3.02,3 3,3.02 3,3.044L3,20.956C3,20.98 3.02,21 3.044,21L20.956,21C20.98,21 21,20.98 21,20.956L21,3.044Z" style="fill:rgb(249,252,250);stroke:rgb(2,48,59);stroke-width:0.44px;"/>
                </g>
                <g transform="matrix(0.136719,0,0,0.136719,-47.0075,126.288)">
                    <g transform="matrix(48.1775,0,0,48.1775,1872.62,235.016)">
                        <path d="M21,16L21,8C20.999,7.287 20.617,6.626 20,6.27L13,2.27C12.382,1.913 11.618,1.913 11,2.27L4,6.27C3.383,6.626 3.001,7.287 3,8L3,16C3.001,16.713 3.383,17.374 4,17.73L11,21.73C11.618,22.087 12.382,22.087 13,21.73L20,17.73C20.617,17.374 20.999,16.713 21,16Z" style="fill:rgb(102,220,184);fill-opacity:0.49;fill-rule:nonzero;stroke:rgb(2,48,59);stroke-width:1.3px;stroke-miterlimit:1;"/>
                    </g>
                    <g transform="matrix(48.1775,0,0,48.1775,1872.62,235.016)">
                        <path d="M3.27,6.96L12,12.01L20.73,6.96" style="fill:none;fill-rule:nonzero;stroke:rgb(2,48,59);stroke-width:1.3px;stroke-miterlimit:4;"/>
                    </g>
                    <g transform="matrix(46.5687,2.67439e-15,-2.67439e-15,46.5687,1886.3,243.403)">
                        <path d="M16.5,9.4L7.5,4.21" style="fill:none;fill-rule:nonzero;stroke:rgb(2,48,59);stroke-width:1.3px;stroke-linejoin:miter;stroke-miterlimit:4;"/>
                    </g>
                    <g transform="matrix(47.2881,0,0,47.2881,1883.29,245.688)">
                        <path d="M12,22.08L12,12" style="fill:none;fill-rule:nonzero;stroke:rgb(2,48,59);stroke-width:1.3px;stroke-linejoin:miter;stroke-miterlimit:4;"/>
                    </g>
                </g>
            </g>
        </g>
    </g>
</svg>
